<?xml version="1.0" encoding="utf-8"?>
<!-- Generator: Adobe Illustrator 25.1.0, SVG Export Plug-In . SVG Version: 6.00 Build 0)  -->
<svg version="1.1" id="Livello_1" xmlns="http://www.w3.org/2000/svg" xmlns:xlink="http://www.w3.org/1999/xlink" x="0px" y="0px"
	 viewBox="0 0 120 120" style="enable-background:new 0 0 120 120;" xml:space="preserve">
<style type="text/css">
	.st0{fill:#282F49;}
</style>
<g id="Group_1203" transform="translate(-384 -1392)">
	<path id="Rectangle_2206" class="st0" d="M391,1393v10c0,0.6-0.4,1-1,1l0,0c-0.6,0-1-0.4-1-1v-10c0-0.6,0.4-1,1-1l0,0
		C390.6,1392,391,1392.4,391,1393z"/>
	<path id="Rectangle_2271" class="st0" d="M391,1501v10c0,0.6-0.4,1-1,1l0,0c-0.6,0-1-0.4-1-1v-10c0-0.6,0.4-1,1-1l0,0
		C390.6,1500,391,1500.4,391,1501z"/>
	<path id="Rectangle_2238" class="st0" d="M391,1447v10c0,0.6-0.4,1-1,1l0,0c-0.6,0-1-0.4-1-1v-10c0-0.6,0.4-1,1-1l0,0
		C390.6,1446,391,1446.4,391,1447z"/>
	<path id="Rectangle_2222" class="st0" d="M391,1420v10c0,0.6-0.4,1-1,1l0,0c-0.6,0-1-0.4-1-1v-10c0-0.6,0.4-1,1-1l0,0
		C390.6,1419,391,1419.4,391,1420z"/>
	<path id="Rectangle_2241" class="st0" d="M391,1474v10c0,0.6-0.4,1-1,1l0,0c-0.6,0-1-0.4-1-1v-10c0-0.6,0.4-1,1-1l0,0
		C390.6,1473,391,1473.4,391,1474z"/>
	<path id="Rectangle_2214" class="st0" d="M499,1393v10c0,0.6-0.4,1-1,1l0,0c-0.6,0-1-0.4-1-1v-10c0-0.6,0.4-1,1-1l0,0
		C498.6,1392,499,1392.4,499,1393z"/>
	<path id="Rectangle_2289" class="st0" d="M499,1501v10c0,0.6-0.4,1-1,1l0,0c-0.6,0-1-0.4-1-1v-10c0-0.6,0.4-1,1-1l0,0
		C498.6,1500,499,1500.4,499,1501z"/>
	<path id="Rectangle_2256" class="st0" d="M499,1447v10c0,0.6-0.4,1-1,1l0,0c-0.6,0-1-0.4-1-1v-10c0-0.6,0.4-1,1-1l0,0
		C498.6,1446,499,1446.4,499,1447z"/>
	<path id="Rectangle_2231" class="st0" d="M499,1420v10c0,0.6-0.4,1-1,1l0,0c-0.6,0-1-0.4-1-1v-10c0-0.6,0.4-1,1-1l0,0
		C498.6,1419,499,1419.4,499,1420z"/>
	<path id="Rectangle_2257" class="st0" d="M499,1474v10c0,0.6-0.4,1-1,1l0,0c-0.6,0-1-0.4-1-1v-10c0-0.6,0.4-1,1-1l0,0
		C498.6,1473,499,1473.4,499,1474z"/>
	<path id="Rectangle_2210" class="st0" d="M445,1393v10c0,0.6-0.4,1-1,1l0,0c-0.6,0-1-0.4-1-1v-10c0-0.6,0.4-1,1-1l0,0
		C444.6,1392,445,1392.4,445,1393z"/>
	<path id="Rectangle_2279" class="st0" d="M445,1501v10c0,0.6-0.4,1-1,1l0,0c-0.6,0-1-0.4-1-1v-10c0-0.6,0.4-1,1-1l0,0
		C444.6,1500,445,1500.4,445,1501z"/>
	<path id="Rectangle_2248" class="st0" d="M445,1447v10c0,0.6-0.4,1-1,1l0,0c-0.6,0-1-0.4-1-1v-10c0-0.6,0.4-1,1-1l0,0
		C444.6,1446,445,1446.4,445,1447z"/>
	<path id="Rectangle_2226" class="st0" d="M445,1420v10c0,0.6-0.4,1-1,1l0,0c-0.6,0-1-0.4-1-1v-10c0-0.6,0.4-1,1-1l0,0
		C444.6,1419,445,1419.4,445,1420z"/>
	<path id="Rectangle_2249" class="st0" d="M445,1474v10c0,0.6-0.4,1-1,1l0,0c-0.6,0-1-0.4-1-1v-10c0-0.6,0.4-1,1-1l0,0
		C444.6,1473,445,1473.4,445,1474z"/>
	<path id="Rectangle_2209" class="st0" d="M418,1393v10c0,0.6-0.4,1-1,1l0,0c-0.6,0-1-0.4-1-1v-10c0-0.6,0.4-1,1-1l0,0
		C417.6,1392,418,1392.4,418,1393z"/>
	<path id="Rectangle_2273" class="st0" d="M418,1501v10c0,0.6-0.4,1-1,1l0,0c-0.6,0-1-0.4-1-1v-10c0-0.6,0.4-1,1-1l0,0
		C417.6,1500,418,1500.4,418,1501z"/>
	<path id="Rectangle_2242" class="st0" d="M418,1447v10c0,0.6-0.4,1-1,1l0,0c-0.6,0-1-0.4-1-1v-10c0-0.6,0.4-1,1-1l0,0
		C417.6,1446,418,1446.4,418,1447z"/>
	<path id="Rectangle_2223" class="st0" d="M418,1420v10c0,0.6-0.4,1-1,1l0,0c-0.6,0-1-0.4-1-1v-10c0-0.6,0.4-1,1-1l0,0
		C417.6,1419,418,1419.4,418,1420z"/>
	<path id="Rectangle_2243" class="st0" d="M418,1474v10c0,0.6-0.4,1-1,1l0,0c-0.6,0-1-0.4-1-1v-10c0-0.6,0.4-1,1-1l0,0
		C417.6,1473,418,1473.4,418,1474z"/>
	<path id="Rectangle_2211" class="st0" d="M472,1393v10c0,0.6-0.4,1-1,1l0,0c-0.6,0-1-0.4-1-1v-10c0-0.6,0.4-1,1-1l0,0
		C471.6,1392,472,1392.4,472,1393z"/>
	<path id="Rectangle_2295" class="st0" d="M472,1501v10c0,0.6-0.4,1-1,1l0,0c-0.6,0-1-0.4-1-1v-10c0-0.6,0.4-1,1-1l0,0
		C471.6,1500,472,1500.4,472,1501z"/>
	<path id="Rectangle_2250" class="st0" d="M472,1447v10c0,0.6-0.4,1-1,1l0,0c-0.6,0-1-0.4-1-1v-10c0-0.6,0.4-1,1-1l0,0
		C471.6,1446,472,1446.4,472,1447z"/>
	<path id="Rectangle_2227" class="st0" d="M472,1420v10c0,0.6-0.4,1-1,1l0,0c-0.6,0-1-0.4-1-1v-10c0-0.6,0.4-1,1-1l0,0
		C471.6,1419,472,1419.4,472,1420z"/>
	<path id="Rectangle_2251" class="st0" d="M472,1474v10c0,0.6-0.4,1-1,1l0,0c-0.6,0-1-0.4-1-1v-10c0-0.6,0.4-1,1-1l0,0
		C471.6,1473,472,1473.4,472,1474z"/>
	<path id="Rectangle_2207" class="st0" d="M395,1399h-10c-0.6,0-1-0.4-1-1l0,0c0-0.6,0.4-1,1-1h10c0.6,0,1,0.4,1,1l0,0
		C396,1398.6,395.6,1399,395,1399z"/>
	<path id="Rectangle_2270" class="st0" d="M395,1507h-10c-0.6,0-1-0.4-1-1l0,0c0-0.6,0.4-1,1-1h10c0.6,0,1,0.4,1,1l0,0
		C396,1506.6,395.6,1507,395,1507z"/>
	<path id="Rectangle_2239" class="st0" d="M395,1453h-10c-0.6,0-1-0.4-1-1l0,0c0-0.6,0.4-1,1-1h10c0.6,0,1,0.4,1,1l0,0
		C396,1452.6,395.6,1453,395,1453z"/>
	<path id="Rectangle_2224" class="st0" d="M395,1426h-10c-0.6,0-1-0.4-1-1l0,0c0-0.6,0.4-1,1-1h10c0.6,0,1,0.4,1,1l0,0
		C396,1425.6,395.6,1426,395,1426z"/>
	<path id="Rectangle_2244" class="st0" d="M395,1480h-10c-0.6,0-1-0.4-1-1l0,0c0-0.6,0.4-1,1-1h10c0.6,0,1,0.4,1,1l0,0
		C396,1479.6,395.6,1480,395,1480z"/>
	<path id="Rectangle_2215" class="st0" d="M503,1399h-10c-0.6,0-1-0.4-1-1l0,0c0-0.6,0.4-1,1-1h10c0.6,0,1,0.4,1,1l0,0
		C504,1398.6,503.6,1399,503,1399z"/>
	<path id="Rectangle_2300" class="st0" d="M503,1507h-10c-0.6,0-1-0.4-1-1l0,0c0-0.6,0.4-1,1-1h10c0.6,0,1,0.4,1,1l0,0
		C504,1506.6,503.6,1507,503,1507z"/>
	<path id="Rectangle_2252" class="st0" d="M503,1453h-10c-0.6,0-1-0.4-1-1l0,0c0-0.6,0.4-1,1-1h10c0.6,0,1,0.4,1,1l0,0
		C504,1452.6,503.6,1453,503,1453z"/>
	<path id="Rectangle_2228" class="st0" d="M503,1426h-10c-0.6,0-1-0.4-1-1l0,0c0-0.6,0.4-1,1-1h10c0.6,0,1,0.4,1,1l0,0
		C504,1425.6,503.6,1426,503,1426z"/>
	<path id="Rectangle_2253" class="st0" d="M503,1480h-10c-0.6,0-1-0.4-1-1l0,0c0-0.6,0.4-1,1-1h10c0.6,0,1,0.4,1,1l0,0
		C504,1479.6,503.6,1480,503,1480z"/>
	<path id="Rectangle_2212" class="st0" d="M449,1399h-10c-0.6,0-1-0.4-1-1l0,0c0-0.6,0.4-1,1-1h10c0.6,0,1,0.4,1,1l0,0
		C450,1398.6,449.6,1399,449,1399z"/>
	<path id="Rectangle_2284" class="st0" d="M449,1507h-10c-0.6,0-1-0.4-1-1l0,0c0-0.6,0.4-1,1-1h10c0.6,0,1,0.4,1,1l0,0
		C450,1506.6,449.6,1507,449,1507z"/>
	<path id="Rectangle_2245" class="st0" d="M449,1453h-10c-0.6,0-1-0.4-1-1l0,0c0-0.6,0.4-1,1-1h10c0.6,0,1,0.4,1,1l0,0
		C450,1452.6,449.6,1453,449,1453z"/>
	<path id="Rectangle_2229" class="st0" d="M449,1426h-10c-0.6,0-1-0.4-1-1l0,0c0-0.6,0.4-1,1-1h10c0.6,0,1,0.4,1,1l0,0
		C450,1425.6,449.6,1426,449,1426z"/>
	<path id="Rectangle_2246" class="st0" d="M449,1480h-10c-0.6,0-1-0.4-1-1l0,0c0-0.6,0.4-1,1-1h10c0.6,0,1,0.4,1,1l0,0
		C450,1479.6,449.6,1480,449,1480z"/>
	<path id="Rectangle_2208" class="st0" d="M422,1399h-10c-0.6,0-1-0.4-1-1l0,0c0-0.6,0.4-1,1-1h10c0.6,0,1,0.4,1,1l0,0
		C423,1398.6,422.6,1399,422,1399z"/>
	<path id="Rectangle_2276" class="st0" d="M422,1507h-10c-0.6,0-1-0.4-1-1l0,0c0-0.6,0.4-1,1-1h10c0.6,0,1,0.4,1,1l0,0
		C423,1506.6,422.6,1507,422,1507z"/>
	<path id="Rectangle_2240" class="st0" d="M422,1453h-10c-0.6,0-1-0.4-1-1l0,0c0-0.6,0.4-1,1-1h10c0.6,0,1,0.4,1,1l0,0
		C423,1452.6,422.6,1453,422,1453z"/>
	<path id="Rectangle_2225" class="st0" d="M422,1426h-10c-0.6,0-1-0.4-1-1l0,0c0-0.6,0.4-1,1-1h10c0.6,0,1,0.4,1,1l0,0
		C423,1425.6,422.6,1426,422,1426z"/>
	<path id="Rectangle_2247" class="st0" d="M422,1480h-10c-0.6,0-1-0.4-1-1l0,0c0-0.6,0.4-1,1-1h10c0.6,0,1,0.4,1,1l0,0
		C423,1479.6,422.6,1480,422,1480z"/>
	<path id="Rectangle_2213" class="st0" d="M476,1399h-10c-0.6,0-1-0.4-1-1l0,0c0-0.6,0.4-1,1-1h10c0.6,0,1,0.4,1,1l0,0
		C477,1398.6,476.6,1399,476,1399z"/>
	<path id="Rectangle_2306" class="st0" d="M476,1507h-10c-0.6,0-1-0.4-1-1l0,0c0-0.6,0.4-1,1-1h10c0.6,0,1,0.4,1,1l0,0
		C477,1506.6,476.6,1507,476,1507z"/>
	<path id="Rectangle_2254" class="st0" d="M476,1453h-10c-0.6,0-1-0.4-1-1l0,0c0-0.6,0.4-1,1-1h10c0.6,0,1,0.4,1,1l0,0
		C477,1452.6,476.6,1453,476,1453z"/>
	<path id="Rectangle_2230" class="st0" d="M476,1426h-10c-0.6,0-1-0.4-1-1l0,0c0-0.6,0.4-1,1-1h10c0.6,0,1,0.4,1,1l0,0
		C477,1425.6,476.6,1426,476,1426z"/>
	<path id="Rectangle_2255" class="st0" d="M476,1480h-10c-0.6,0-1-0.4-1-1l0,0c0-0.6,0.4-1,1-1h10c0.6,0,1,0.4,1,1l0,0
		C477,1479.6,476.6,1480,476,1480z"/>
</g>
</svg>
